<!-- icon666.com - MILLIONS vector ICONS FREE --><svg id="bold" enable-background="new 0 0 24 24" viewBox="0 0 24 24" xmlns="http://www.w3.org/2000/svg"><g><path d="m21 24h-18c-1.654 0-3-1.346-3-3v-18c0-1.654 1.346-3 3-3h18c1.654 0 3 1.346 3 3v18c0 1.654-1.346 3-3 3zm-18-22c-.551 0-1 .449-1 1v18c0 .551.449 1 1 1h18c.551 0 1-.449 1-1v-18c0-.551-.449-1-1-1z"></path></g><g><path d="m9.25 10.25h-2.5c-.552 0-1-.448-1-1v-2.5c0-.552.448-1 1-1h2.5c.552 0 1 .448 1 1v2.5c0 .552-.448 1-1 1z"></path></g><g><path d="m17.25 10.25h-2.5c-.552 0-1-.448-1-1v-2.5c0-.552.448-1 1-1h2.5c.552 0 1 .448 1 1v2.5c0 .552-.448 1-1 1z"></path></g><g><path d="m9.25 18.25h-2.5c-.552 0-1-.448-1-1v-2.5c0-.552.448-1 1-1h2.5c.552 0 1 .448 1 1v2.5c0 .552-.448 1-1 1z"></path></g><g><path d="m17.25 18.25h-2.5c-.552 0-1-.448-1-1v-2.5c0-.552.448-1 1-1h2.5c.552 0 1 .448 1 1v2.5c0 .552-.448 1-1 1z"></path></g></svg>